# xmcd CD database file
#
# Track frame offsets:
#	150
#	16788
#	33992
#	52350
#	71596
#	89642
#	106048
#	124764
#	140922
#	155198
#	171062
#	190514
#	206456
#	222360
#	239018
#
# Disc length: 3408 seconds
#
# Revision: 0
# Processed by: cddbd v1.4PL0 Copyright (c) Steve Scherf et al.
# Submitted via: CDex 1.50Beta7
#
DISCID=de0d4e0f
DTITLE=Bandari - Dreamia Garden
DYEAR=2001
DGENRE=New Age
TTITLE0=Magic Winds
TTITLE1=Morning Air
TTITLE2=Dreamin
TTITLE3=In The Air
TTITLE4=Moments Of Love
TTITLE5=Laterna Magica
TTITLE6=Mandy's Song
TTITLE7=Siderial Hour
TTITLE8=Song Of The Mayas
TTITLE9=The Winter Song
TTITLE10=Aolone In The Night
TTITLE11=Silver Valley
TTITLE12=Indian Dreams
TTITLE13=Xenon
TTITLE14=Xenon
EXTD=YEAR: 2001
EXTT0=
EXTT1=
EXTT2=
EXTT3=
EXTT4=
EXTT5=
EXTT6=
EXTT7=
EXTT8=
EXTT9=
EXTT10=
EXTT11=
EXTT12=
EXTT13=
EXTT14=
PLAYORDER=
